<svg xmlns="http://www.w3.org/2000/svg" viewBox="0 0 273.07 104.18"><defs><style>.cls-1{fill:#565e52;}</style></defs><g id="Labels"><path class="cls-1" d="M163.4,73.13h-6.65V70h16.93v3.17H167V90.29H163.4Z" transform="translate(-65.43 -65.43)"/><path class="cls-1" d="M179.77,70h3.56v8.2h9.91V70h3.57V90.29h-3.57v-9h-9.91v9h-3.56Z" transform="translate(-65.43 -65.43)"/><path class="cls-1" d="M205.18,70h12.13v3.17h-8.57v5.06h7.44v3h-7.44v5.89h8.85v3.18H205.18Z" transform="translate(-65.43 -65.43)"/><path class="cls-1" d="M158.32,107.39h12.13v3.18h-8.56v5.05h7.43v3h-7.43v5.9h8.84v3.17H158.32Z" transform="translate(-65.43 -65.43)"/><path class="cls-1" d="M178.14,107.39h3.57v17.16h9.23v3.17h-12.8Z" transform="translate(-65.43 -65.43)"/><path class="cls-1" d="M197.82,107.39H210v3.18h-8.56v5.05h7.44v3h-7.44v5.9h8.84v3.17H197.82Z" transform="translate(-65.43 -65.43)"/><path class="cls-1" d="M233.17,126.57a12.2,12.2,0,0,1-5.95,1.46c-6.38,0-10.87-4.49-10.87-10.42s4.38-10.52,10.84-10.52a12.35,12.35,0,0,1,5.67,1.34v3.71a10,10,0,0,0-5.67-1.83,7.23,7.23,0,1,0,.19,14.46,9.56,9.56,0,0,0,5.79-2Z" transform="translate(-65.43 -65.43)"/><path class="cls-1" d="M245.78,110.57h-6.66v-3.18h16.93v3.18h-6.71v17.15h-3.56Z" transform="translate(-65.43 -65.43)"/><path class="cls-1" d="M262.84,107.39h3.57v20.33h-3.57Z" transform="translate(-65.43 -65.43)"/><path class="cls-1" d="M273,117.56A10.47,10.47,0,1,1,283.48,128,10.26,10.26,0,0,1,273,117.56Zm17.38,0a6.92,6.92,0,1,0-6.91,7.21A6.94,6.94,0,0,0,290.39,117.56Z" transform="translate(-65.43 -65.43)"/><path class="cls-1" d="M299.85,127.72V107.39h3.37l7.35,9.8c1.27,1.69,2.44,3.29,3.62,4.91l.06,0c-.06-1.91-.06-4-.06-6.15v-8.54h3.46v20.33h-3.37l-7.36-9.8c-1.26-1.68-2.44-3.28-3.62-4.91l-.06,0c.06,1.91.06,4,.06,6.15v8.53Z" transform="translate(-65.43 -65.43)"/><path class="cls-1" d="M325.14,122.75a11.82,11.82,0,0,0,6.32,2.11c2,0,3.48-.87,3.48-2.76,0-2.24-2.13-2.55-4.77-3.34-2.84-.87-5.5-2.16-5.5-5.78s2.75-5.89,6.85-5.89a12.55,12.55,0,0,1,6,1.48v3.6a11.85,11.85,0,0,0-6.06-1.91c-1.91,0-3.26.76-3.26,2.47,0,2.16,2.14,2.44,4.58,3.2,3,.92,5.7,2.24,5.7,6s-2.87,6.12-7.08,6.12a14,14,0,0,1-6.29-1.55Z" transform="translate(-65.43 -65.43)"/><path class="cls-1" d="M175.11,163.58a13.9,13.9,0,0,1-7,1.88c-6.26,0-10.81-4.38-10.81-10.41s4.52-10.53,10.92-10.53a12.22,12.22,0,0,1,6.23,1.63v3.73a10.47,10.47,0,0,0-6.2-2.13,7.27,7.27,0,1,0,0,14.54,7.58,7.58,0,0,0,3.31-.7v-3.9h-4v-3h7.55Z" transform="translate(-65.43 -65.43)"/><path class="cls-1" d="M183.19,144.83h5.93a12,12,0,0,1,5.7,1,5.4,5.4,0,0,1,2.92,4.94,5.57,5.57,0,0,1-4.52,5.59l6.12,8.78h-4.19l-5.67-8.39h-2.72v8.39h-3.57ZM189.6,154a5.82,5.82,0,0,0,3.53-.82,2.54,2.54,0,0,0,1-2.19,2.57,2.57,0,0,0-1.46-2.44,8.05,8.05,0,0,0-3.79-.56h-2.16v6Z" transform="translate(-65.43 -65.43)"/><path class="cls-1" d="M203.91,155a10.48,10.48,0,1,1,10.48,10.47A10.27,10.27,0,0,1,203.91,155Zm17.38,0a6.91,6.91,0,1,0-6.9,7.21A6.94,6.94,0,0,0,221.29,155Z" transform="translate(-65.43 -65.43)"/><path class="cls-1" d="M247.63,155.27c0,3-.31,5.25-1.46,7-1.41,2.08-4,3.23-7.11,3.23s-5.72-1.23-7.07-3.28c-1.12-1.69-1.43-3.93-1.43-6.68V144.83h3.56v10.44c0,2.39.2,3.76.79,4.8s1.94,2.13,4.29,2.13c2.14,0,3.43-.78,4.16-2,.64-1.1.81-2.61.81-4.83v-10.5h3.46Z" transform="translate(-65.43 -65.43)"/><path class="cls-1" d="M255.77,144.83h5.67a12.86,12.86,0,0,1,6,1.06,5.74,5.74,0,0,1,3.08,5.25,5.81,5.81,0,0,1-2.83,5.17c-1.66,1-3.85,1.21-6.65,1.21h-1.75v7.63h-3.56Zm5.59,9.71c2.07,0,3.25-.08,4.21-.64a2.89,2.89,0,0,0,1.43-2.64,2.84,2.84,0,0,0-1.66-2.73,9.35,9.35,0,0,0-4-.53h-2v6.54Z" transform="translate(-65.43 -65.43)"/><path class="cls-1" d="M73.66,104.18h56.92c.14-1.7.29-3.83.29-6,0-20.72-14.06-32.79-30.95-32.79-18.87,0-34.49,14.91-34.49,36.48,0,21.72,15.9,36.48,37.33,36.48a46.17,46.17,0,0,0,19.73-4.29V137c0,15.61-9.79,25-25.26,25a40.13,40.13,0,0,1-21.58-6.67v8.94a45.32,45.32,0,0,0,21.58,5.39c21.14,0,33.64-13.05,33.64-32.78v-17c-10.5,7.62-18.16,11-27.53,11C86.86,130.87,75.08,120.65,73.66,104.18ZM99.64,73c9.37,0,22.57,5.53,23,24.27H74C76.22,81.05,88,73,99.64,73Z" transform="translate(-65.43 -65.43)"/></g></svg>